<?xml version="1.0" standalone="no"?>
<!DOCTYPE svg PUBLIC "-//W3C//DTD SVG 20010904//EN"
 "http://www.w3.org/TR/2001/REC-SVG-20010904/DTD/svg10.dtd">
<svg version="1.0" xmlns="http://www.w3.org/2000/svg"
 width="213.000000pt" height="115.000000pt" viewBox="0 0 213.000000 115.000000"
 preserveAspectRatio="xMidYMid meet">

<g transform="translate(0.000000,115.000000) scale(0.100000,-0.100000)"
fill="#000000" stroke="none">
<path d="M303 1110 c-120 -24 -193 -126 -193 -269 0 -89 22 -150 72 -200 88
-87 227 -94 306 -15 19 19 36 34 38 34 2 0 4 -16 4 -35 0 -32 2 -35 30 -35
l30 0 0 120 0 120 -95 0 -95 0 0 -35 0 -35 50 0 c60 0 64 -13 19 -65 -58 -66
-156 -67 -216 -2 -57 63 -66 210 -17 284 56 86 215 81 246 -7 9 -27 14 -30 54
-30 38 0 44 3 44 21 0 53 -66 124 -134 144 -54 16 -79 17 -143 5z"/>
<path d="M1060 845 l0 -255 40 0 40 0 0 255 0 255 -40 0 -40 0 0 -255z"/>
<path d="M1770 1037 c-14 -23 -26 -45 -28 -49 -2 -5 9 -8 25 -8 21 0 42 13 78
50 l49 50 -49 0 c-48 0 -51 -2 -75 -43z"/>
<path d="M778 930 c-47 -8 -86 -35 -98 -66 -14 -35 -15 -34 30 -34 29 0 42 5
50 20 8 15 21 20 53 20 46 0 67 -13 67 -42 0 -22 -30 -38 -72 -38 -45 0 -109
-19 -130 -37 -25 -23 -32 -74 -15 -115 30 -71 130 -87 188 -29 l28 28 5 -23
c6 -21 12 -24 52 -24 33 0 43 3 38 12 -5 7 -11 70 -14 140 -5 119 -7 130 -30
153 -29 28 -97 44 -152 35z m97 -236 c-11 -59 -75 -84 -115 -44 -38 38 -17 73
56 91 24 6 48 17 52 23 10 16 15 -29 7 -70z"/>
<path d="M1760 932 c-56 -7 -91 -25 -105 -52 -22 -43 -19 -50 23 -50 26 0 41
6 50 20 9 15 23 20 56 20 49 0 71 -18 61 -49 -6 -20 -21 -25 -114 -37 -42 -5
-62 -13 -84 -36 -26 -26 -29 -34 -24 -74 6 -54 27 -80 77 -95 47 -14 101 2
129 37 l20 25 3 -23 c2 -19 10 -24 43 -26 l40 -3 -3 113 c-3 134 -14 182 -48
204 -28 19 -87 31 -124 26z m76 -255 c-12 -29 -21 -37 -51 -43 -42 -8 -75 15
-75 51 0 28 14 40 65 54 22 6 47 15 55 21 22 14 25 -38 6 -83z"/>
<path d="M1300 912 c-50 -27 -75 -82 -74 -162 0 -41 7 -77 18 -98 47 -91 199
-107 273 -30 79 83 63 231 -29 288 -44 26 -140 27 -188 2z m140 -52 c10 -5 23
-24 29 -41 37 -108 -27 -215 -106 -177 -55 26 -69 162 -22 209 20 20 69 25 99
9z"/>
<path d="M1410 486 c0 -8 -10 -16 -22 -18 -18 -2 -23 -10 -23 -32 0 -18 6 -31
15 -33 12 -4 12 -3 2 5 -19 13 -11 46 12 50 16 3 18 -1 14 -27 -2 -17 -1 -31
4 -31 4 0 8 23 8 50 0 28 -2 50 -5 50 -3 0 -5 -6 -5 -14z"/>
<path d="M350 462 c0 -6 9 -8 19 -5 16 4 20 -1 24 -29 l5 -33 -2 35 c-1 28 -5
36 -23 38 -13 2 -23 -1 -23 -6z"/>
<path d="M457 463 c6 -4 13 -22 16 -38 4 -27 5 -27 3 4 0 21 -7 36 -16 38 -10
3 -11 2 -3 -4z"/>
<path d="M548 440 c3 -23 0 -30 -13 -30 -11 0 -15 5 -11 15 3 8 1 15 -4 15 -6
0 -10 -9 -10 -20 0 -15 7 -20 28 -20 26 0 28 2 24 35 -2 19 -7 35 -11 35 -4 0
-6 -13 -3 -30z"/>
<path d="M593 435 c0 -22 2 -30 4 -17 2 12 2 30 0 40 -3 9 -5 -1 -4 -23z"/>
<path d="M627 463 c-8 -8 12 -33 26 -33 6 0 2 7 -9 16 -18 15 -18 15 8 11 15
-2 25 0 22 4 -6 11 -38 12 -47 2z"/>
<path d="M754 456 c-8 -22 -1 -49 14 -52 7 -1 8 0 2 3 -19 9 -10 23 16 23 19
0 25 5 22 18 -4 22 -46 29 -54 8z m46 -6 c0 -5 -9 -10 -20 -10 -11 0 -20 5
-20 10 0 6 9 10 20 10 11 0 20 -4 20 -10z"/>
<path d="M881 411 c1 -31 4 -44 6 -28 3 18 9 25 16 20 7 -4 6 0 -2 10 -16 20
-8 47 14 47 22 0 30 -27 14 -48 -12 -16 -11 -15 6 1 25 22 9 52 -29 53 -25 1
-26 0 -25 -55z"/>
<path d="M973 435 c0 -22 2 -30 4 -17 2 12 2 30 0 40 -3 9 -5 -1 -4 -23z"/>
<path d="M1030 455 c-15 -18 -10 -47 10 -53 13 -5 13 -3 1 11 -7 9 -11 24 -7
32 8 22 35 18 46 -7 5 -14 9 -17 9 -7 2 34 -37 50 -59 24z"/>
<path d="M1114 456 c-14 -38 22 -74 48 -48 6 6 0 8 -16 5 -23 -5 -26 -2 -26
22 0 24 3 27 25 23 13 -3 22 -1 19 3 -8 14 -44 10 -50 -5z"/>
<path d="M1194 456 c-8 -22 -1 -49 14 -52 7 -1 8 0 2 3 -19 9 -10 23 16 23 19
0 25 5 22 18 -4 22 -46 29 -54 8z m46 -6 c0 -5 -9 -10 -20 -10 -11 0 -20 5
-20 10 0 6 9 10 20 10 11 0 20 -4 20 -10z"/>
<path d="M1282 453 c-13 -24 2 -53 28 -53 10 0 21 4 24 9 3 4 -6 6 -19 3 -15
-2 -25 0 -25 7 0 6 12 11 26 11 19 0 25 5 22 18 -5 24 -44 28 -56 5z m48 -3
c0 -5 -9 -10 -20 -10 -11 0 -20 5 -20 10 0 6 9 10 20 10 11 0 20 -4 20 -10z"/>
<path d="M1453 435 c0 -22 2 -30 4 -17 2 12 2 30 0 40 -3 9 -5 -1 -4 -23z"/>
<path d="M1517 463 c6 -4 13 -22 16 -38 4 -27 5 -27 3 4 0 21 -7 36 -16 38
-10 3 -11 2 -3 -4z"/>
<path d="M1570 455 c-8 -10 -9 -19 0 -34 6 -12 13 -21 16 -21 2 0 1 8 -4 18
-12 22 -5 42 14 42 21 0 28 -28 13 -47 -12 -14 -12 -16 0 -9 9 6 12 5 9 -5 -3
-8 -14 -14 -26 -13 -12 0 -19 -3 -16 -8 9 -14 42 -9 48 8 3 9 6 30 6 48 0 26
-4 32 -24 34 -13 1 -29 -5 -36 -13z"/>
<path d="M1657 463 c-8 -8 12 -33 26 -33 6 0 2 7 -9 16 -18 15 -18 15 8 11 15
-2 25 0 22 4 -6 11 -38 12 -47 2z"/>
<path d="M147 443 c24 -2 62 -2 85 0 24 2 5 4 -42 4 -47 0 -66 -2 -43 -4z"/>
<path d="M1823 443 c26 -2 67 -2 90 0 23 2 2 3 -48 3 -49 0 -68 -1 -42 -3z"/>
<path d="M344 429 c-3 -6 -1 -16 6 -22 10 -9 11 -9 5 2 -4 8 -2 17 6 22 9 6
10 9 2 9 -6 0 -15 -5 -19 -11z"/>
<path d="M666 413 c-6 -14 -5 -15 5 -6 7 7 10 15 7 18 -3 3 -9 -2 -12 -12z"/>
<path d="M1696 413 c-6 -14 -5 -15 5 -6 7 7 10 15 7 18 -3 3 -9 -2 -12 -12z"/>
<path d="M627 409 c7 -7 15 -10 18 -7 3 3 -2 9 -12 12 -14 6 -15 5 -6 -5z"/>
<path d="M1657 409 c7 -7 15 -10 18 -7 3 3 -2 9 -12 12 -14 6 -15 5 -6 -5z"/>
<path d="M50 310 c-18 -18 -20 -33 -20 -130 0 -97 2 -112 20 -130 20 -20 33
-20 980 -20 947 0 960 0 980 20 18 18 20 33 20 130 0 97 -2 112 -20 130 -20
20 -33 20 -980 20 -947 0 -960 0 -980 -20z m855 -106 c22 8 47 -18 43 -45 -2
-19 -10 -25 -35 -27 l-33 -3 1 58 c1 32 4 48 6 35 3 -14 10 -22 18 -18z m-160
16 c4 -7 -2 -9 -19 -4 -35 8 -35 -19 0 -35 16 -7 24 -18 22 -29 -4 -20 -45
-29 -62 -12 -8 9 -4 10 15 5 39 -10 45 11 9 30 -29 15 -38 34 -23 48 10 11 51
8 58 -3z m565 0 c0 -5 -5 -10 -11 -10 -5 0 -7 5 -4 10 3 6 8 10 11 10 2 0 4
-4 4 -10z m-480 -57 c0 -33 -2 -34 -32 -31 -26 2 -34 8 -36 27 -5 29 20 51 48
44 15 -4 20 -14 20 -40z m191 37 c5 0 9 -16 9 -36 0 -34 -1 -35 -32 -32 -26 2
-34 8 -36 26 -4 28 16 55 35 47 8 -3 19 -5 24 -5z m250 0 c5 0 9 -16 9 -36 0
-34 -1 -35 -32 -32 -26 2 -34 8 -36 26 -4 28 16 55 35 47 8 -3 19 -5 24 -5z
m99 0 c12 -8 10 -10 -10 -10 l-25 -1 23 -16 c12 -8 22 -22 22 -29 0 -16 -46
-19 -55 -4 -4 7 3 9 22 5 l28 -6 -28 21 c-22 18 -25 25 -16 36 13 16 19 17 39
4z m-513 -52 c-2 -13 -4 -5 -4 17 -1 22 1 32 4 23 2 -10 2 -28 0 -40z m341 15
c2 -19 -1 -33 -7 -33 -6 0 -11 14 -11 30 0 20 -5 30 -15 30 -10 0 -15 -10 -15
-30 0 -16 -4 -30 -10 -30 -5 0 -10 14 -10 30 0 20 -5 30 -15 30 -10 0 -15 -10
-15 -30 0 -16 -4 -30 -10 -30 -5 0 -10 16 -10 35 l0 36 58 -3 c56 -3 57 -3 60
-35z m112 1 c0 -21 -4 -33 -10 -29 -5 3 -10 19 -10 36 0 16 5 29 10 29 6 0 10
-16 10 -36z"/>
<path d="M894 175 c-7 -18 3 -35 21 -35 15 0 28 27 19 41 -8 14 -34 11 -40 -6z"/>
<path d="M776 181 c-10 -16 5 -42 23 -39 21 4 21 42 -1 46 -9 2 -19 -1 -22 -7z"/>
<path d="M974 175 c-7 -18 3 -35 22 -35 8 0 14 10 14 25 0 27 -27 35 -36 10z"/>
<path d="M1224 175 c-7 -18 3 -35 22 -35 8 0 14 10 14 25 0 27 -27 35 -36 10z"/>
</g>
</svg>
